{"title":"Peter The Redemption 2016 Movies HDRip XviD New +Sample ~ ☻rDX☻","uid":15725177,"size":739473902,"categoryP":"video","categoryS":"movies","magnet":"?xt=urn:btih:912fc6e160950bfab5bc6cf021d1314ad34319ee&amp;dn=Peter+The+Redemption+2016+Movies+HDRip+XviD+New+%2BSample+%7E+%E2%98%BBrDX%E2%98%BB&amp;tr=udp%3A%2F%2Ftracker.leechers-paradise.org%3A6969&amp;tr=udp%3A%2F%2Fzer0day.ch%3A1337&amp;tr=udp%3A%2F%2Fopen.demonii.com%3A1337&amp;tr=udp%3A%2F%2Ftracker.coppersurfer.tk%3A6969&amp;tr=udp%3A%2F%2Fexodus.desync.com%3A6969","seeders":0,"leechers":2,"uploader":"basicssom","files":2,"time":1472706696,"description":"----------------------------------------------------------------\r\nPeter The Redemption 2016 English Movies HDRip XviD AAC New Source with Sample ☻rDX☻\r\n\r\nSCREEN SHOTS &amp; POSTER:\r\n  \nhttp://postimage.co.nr/2016/9/sell/index.htm  \nhttp://postimage.co.nr/2016/9/sell/1.html  \nhttp://postimage.co.nr/2016/9/sell/2.html  \nhttp://postimage.co.nr/2016/9/sell/3.html  \nhttp://postimage.co.nr/2016/9/sell/4.html  \nhttp://postimage.co.nr/2016/9/sell/5.html  \nhttp://postimage.co.nr/2016/9/sell/6.html  \nhttp://postimage.co.nr/2016/9/sell/7.html  \nhttp://postimage.co.nr/2016/9/sell/8.html  \nhttp://postimage.co.nr/2016/9/sell/9.html  \nhttp://postimage.co.nr/2016/9/sell/10.html\r\n\r\nFormat                                   : Matroska\r\nFormat version                           : Version 4 / Version 2\r\nFile size                                : 698 MiB\r\nDuration                                 : 1 h 29 min\r\nOverall bit rate mode                    : Constant\r\nOverall bit rate                         : 1 086 kb/s\r\nMovie name                               : Peter The Redemption 2016 English Movies HDRip XviD AAC New Source ☻rDX☻\r\n\r\nVideo\r\nID                                       : 2\r\nFormat                                   : AVC\r\nFormat/Info                              : Advanced Video Codec\r\nFormat profile                           :   \r\nFormat settings, CABAC                   : Yes\r\nFormat settings, ReFrames                : 2 frames\r\nFormat settings, GOP                     : M=1, N=12\r\nCodec ID                                 : V_MPEG4/ISO/AVC\r\nDuration                                 : 1 h 29 min\r\nBit rate mode                            : Constant\r\nBit rate                                 : 703 kb/s\r\nWidth                                    : 720 pixels\r\nHeight                                   : 400 pixels\r\nDisplay aspect ratio                     : 16:9\r\nFrame rate mode                          : Constant\r\nFrame rate                               : 23.976 FPS\r\nColor space                              : YUV\r\nChroma subsampling                       : 4:2:0\r\nBit depth                                : 8 bits\r\nScan type                                : Progressive\r\nBits/(Pixel*Frame)                       : 0.102\r\nStream size                              : 437 MiB (63%)\r\nTitle                                    : ☻rDX☻\r\nDefault                                  : Yes\r\nForced                                   : No\r\n\r\nAudio\r\nID                                       : 1\r\nFormat                                   : AC-3\r\nFormat/Info                              : Audio Coding 3\r\nMode extension                           : CM (complete main)\r\nFormat settings, Endianness              : Big\r\nCodec ID                                 : A_AC3\r\nDuration                                 : 1 h 29 min\r\nBit rate mode                            : Constant\r\nBit rate                                 : 384 kb/s\r\nChannel(s)                               : 6 channels\r\nChannel positions                        : Front: L C R, Side: L R, LFE\r\nSampling rate                            : 48.0 kHz\r\nFrame rate                               : 31.250 FPS (1536 spf)\r\nCompression mode                         : Lossy\r\nStream size                              : 247 MiB (35%)\r\nTitle                                    : ☻rDX☻\r\nDefault                                  : Yes\r\nForced                                   : No\r\n\r\nIMDB \nhttp://www.imdb.com/title/tt5206170/","torrent":{"xt":"urn:btih:912fc6e160950bfab5bc6cf021d1314ad34319ee","amp;dn":"Peter+The+Redemption+2016+Movies+HDRip+XviD+New+%2BSample+%7E+%E2%98%BBrDX%E2%98%BB","amp;tr":["udp%3A%2F%2Ftracker.leechers-paradise.org%3A6969","udp%3A%2F%2Fzer0day.ch%3A1337","udp%3A%2F%2Fopen.demonii.com%3A1337","udp%3A%2F%2Ftracker.coppersurfer.tk%3A6969","udp%3A%2F%2Fexodus.desync.com%3A6969"],"infoHash":"912fc6e160950bfab5bc6cf021d1314ad34319ee","infoHashBuffer":{"type":"Buffer","data":[145,47,198,225,96,149,11,250,181,188,108,240,33,209,49,74,211,67,25,238]},"announce":[],"urlList":[]}}